<?xml version="1.0" encoding="utf-8"?>
<!-- Generator: Adobe Illustrator 21.1.0, SVG Export Plug-In . SVG Version: 6.00 Build 0)  -->
<svg version="1.1" xmlns="http://www.w3.org/2000/svg" xmlns:xlink="http://www.w3.org/1999/xlink" x="0px" y="0px"
	 viewBox="0 0 100 440" style="enable-background:new 0 0 100 440;" xml:space="preserve">
<style type="text/css">
	.st0{fill:none;stroke:#787878;stroke-miterlimit:10;}
	.st1{fill:#787878;}
	.st2{font-family:'Poppins-Regular';}
	.st3{font-size:10px;}
	.st4{fill:#965BA5;}
	.st5{fill:#3B97D3;}
	.st6{fill:#F0C419;}
	.st7{fill:#E57E25;}
	.st8{fill:#C03B2B;}
</style>
<g id="base">
	<line class="st0" x1="32" y1="17.8" x2="81" y2="17.8"/>
	<line class="st0" x1="32" y1="31.8" x2="81" y2="31.8"/>
	<line class="st0" x1="32" y1="46.8" x2="81" y2="46.8"/>
	<line class="st0" x1="32" y1="61.8" x2="81" y2="61.8"/>
	<line class="st0" x1="32" y1="76.8" x2="81" y2="76.8"/>
	<line class="st0" x1="32" y1="90.8" x2="81" y2="90.8"/>
	<line class="st0" x1="32" y1="106.8" x2="81" y2="106.8"/>
	<line class="st0" x1="32" y1="121.8" x2="81" y2="121.8"/>
	<line class="st0" x1="32" y1="135.8" x2="81" y2="135.8"/>
	<line class="st0" x1="32" y1="151.8" x2="81" y2="151.8"/>
	<line class="st0" x1="32" y1="166.8" x2="81" y2="166.8"/>
	<line class="st0" x1="32" y1="180.8" x2="81" y2="180.8"/>
	<line class="st0" x1="32" y1="196.8" x2="81" y2="196.8"/>
	<line class="st0" x1="32" y1="211.8" x2="81" y2="211.8"/>
	<line class="st0" x1="32" y1="226.8" x2="81" y2="226.8"/>
	<line class="st0" x1="32" y1="241.8" x2="81" y2="241.8"/>
	<line class="st0" x1="32" y1="256.8" x2="81" y2="256.8"/>
	<line class="st0" x1="32" y1="271.8" x2="81" y2="271.8"/>
	<line class="st0" x1="32" y1="286.8" x2="81" y2="286.8"/>
	<line class="st0" x1="32" y1="301.8" x2="81" y2="301.8"/>
	<line class="st0" x1="32" y1="316.8" x2="81" y2="316.8"/>
	<line class="st0" x1="32" y1="331.8" x2="81" y2="331.8"/>
	<line class="st0" x1="32" y1="346.8" x2="81" y2="346.8"/>
	<line class="st0" x1="32" y1="361.8" x2="81" y2="361.8"/>
	<line class="st0" x1="32" y1="376.8" x2="81" y2="376.8"/>
	<line class="st0" x1="32" y1="391.8" x2="81" y2="391.8"/>
	<text transform="matrix(1 0 0 1 13.8237 20.1861)"><tspan x="0" y="0" class="st1 st2 st3">a</tspan><tspan x="0" y="15" class="st1 st2 st3">b</tspan><tspan x="0.4" y="30" class="st1 st2 st3">c</tspan><tspan x="0" y="45" class="st1 st2 st3">d</tspan><tspan x="0.3" y="60" class="st1 st2 st3">e</tspan><tspan x="1.7" y="75" class="st1 st2 st3">f</tspan><tspan x="0" y="90" class="st1 st2 st3">g</tspan><tspan x="0.2" y="105" class="st1 st2 st3">h</tspan><tspan x="2.1" y="120" class="st1 st2 st3">i</tspan><tspan x="2.1" y="135" class="st1 st2 st3">j</tspan><tspan x="0.8" y="150" class="st1 st2 st3">k</tspan><tspan x="2.1" y="165" class="st1 st2 st3">l</tspan><tspan x="-1.8" y="180" class="st1 st2 st3">m</tspan><tspan x="0.2" y="195" class="st1 st2 st3">n</tspan><tspan x="0.2" y="210" class="st1 st2 st3">o</tspan><tspan x="0" y="225" class="st1 st2 st3">p</tspan><tspan x="0" y="240" class="st1 st2 st3">q</tspan><tspan x="1.5" y="255" class="st1 st2 st3">r</tspan><tspan x="0.7" y="270" class="st1 st2 st3">s</tspan><tspan x="1.6" y="285" class="st1 st2 st3">t</tspan><tspan x="0.2" y="300" class="st1 st2 st3">u</tspan><tspan x="0.6" y="315" class="st1 st2 st3">v</tspan><tspan x="-0.7" y="330" class="st1 st2 st3">w</tspan><tspan x="1" y="345" class="st1 st2 st3">x</tspan><tspan x="0.6" y="360" class="st1 st2 st3">y</tspan><tspan x="1.1" y="375" class="st1 st2 st3">z</tspan><tspan x="-5.6" y="405" class="st1 st2 st3">spc</tspan></text>
</g>
<g id="Layer_1">
	<circle class="st4" cx="81.1" cy="18.1" r="3.1"/>
	<circle class="st5" cx="69.1" cy="32.1" r="3.1"/>
	<circle class="st5" cx="69.1" cy="47.1" r="3.1"/>
	<circle class="st4" cx="81.1" cy="47.1" r="3.1"/>
	<circle class="st6" cx="57.1" cy="62.1" r="3.1"/>
	<circle class="st6" cx="57.1" cy="77.1" r="3.1"/>
	<circle class="st4" cx="81.1" cy="77.1" r="3.1"/>
	<circle class="st6" cx="57.1" cy="91.1" r="3.1"/>
	<circle class="st5" cx="69.1" cy="91.1" r="3.1"/>
	<circle class="st6" cx="57.1" cy="107.1" r="3.1"/>
	<circle class="st5" cx="69.1" cy="107.1" r="3.1"/>
	<circle class="st4" cx="81.1" cy="107.1" r="3.1"/>
	<circle class="st7" cx="45.1" cy="122.1" r="3.1"/>
	<circle class="st7" cx="45.1" cy="136.1" r="3.1"/>
	<circle class="st4" cx="81.1" cy="136.1" r="3.1"/>
	<circle class="st7" cx="45.1" cy="152.1" r="3.1"/>
	<circle class="st5" cx="69.1" cy="152.1" r="3.1"/>
	<circle class="st7" cx="45.1" cy="167.1" r="3.1"/>
	<circle class="st5" cx="69.1" cy="167.1" r="3.1"/>
	<circle class="st4" cx="81.1" cy="167.1" r="3.1"/>
	<circle class="st7" cx="45.1" cy="181.1" r="3.1"/>
	<circle class="st6" cx="57.1" cy="181.1" r="3.1"/>
	<circle class="st7" cx="45.1" cy="197.1" r="3.1"/>
	<circle class="st6" cx="57.1" cy="197.1" r="3.1"/>
	<circle class="st4" cx="81.1" cy="197.1" r="3.1"/>
	<circle class="st7" cx="45.1" cy="212.1" r="3.1"/>
	<circle class="st6" cx="57.1" cy="212.1" r="3.1"/>
	<circle class="st5" cx="69.1" cy="212.1" r="3.1"/>
	<circle class="st7" cx="45.1" cy="227.1" r="3.1"/>
	<circle class="st6" cx="57.1" cy="227.1" r="3.1"/>
	<circle class="st5" cx="69.1" cy="227.1" r="3.1"/>
	<circle class="st4" cx="81.1" cy="227.1" r="3.1"/>
	<circle class="st8" cx="33.1" cy="242.1" r="3.1"/>
	<circle class="st8" cx="33.1" cy="257.1" r="3.1"/>
	<circle class="st4" cx="81.1" cy="257.1" r="3.1"/>
	<circle class="st8" cx="33.1" cy="272.1" r="3.1"/>
	<circle class="st5" cx="69.1" cy="272.1" r="3.1"/>
	<circle class="st8" cx="33.1" cy="287.1" r="3.1"/>
	<circle class="st5" cx="69.1" cy="287.1" r="3.1"/>
	<circle class="st4" cx="81.1" cy="287.1" r="3.1"/>
	<circle class="st8" cx="33.1" cy="302.1" r="3.1"/>
	<circle class="st6" cx="57.1" cy="302.1" r="3.1"/>
	<circle class="st8" cx="33.1" cy="317.1" r="3.1"/>
	<circle class="st6" cx="57.1" cy="317.1" r="3.1"/>
	<circle class="st4" cx="81.1" cy="317.1" r="3.1"/>
	<circle class="st8" cx="33.1" cy="332.1" r="3.1"/>
	<circle class="st6" cx="57.1" cy="332.1" r="3.1"/>
	<circle class="st5" cx="69.1" cy="332.1" r="3.1"/>
	<circle class="st8" cx="33.1" cy="347.1" r="3.1"/>
	<circle class="st6" cx="57.1" cy="347.1" r="3.1"/>
	<circle class="st5" cx="69.1" cy="347.1" r="3.1"/>
	<circle class="st4" cx="81.1" cy="347.1" r="3.1"/>
	<circle class="st8" cx="33.1" cy="362.1" r="3.1"/>
	<circle class="st7" cx="45.1" cy="362.1" r="3.1"/>
	<circle class="st8" cx="33.1" cy="377.1" r="3.1"/>
	<circle class="st7" cx="45.1" cy="377.1" r="3.1"/>
	<circle class="st4" cx="81.1" cy="377.1" r="3.1"/>
	<circle class="st8" cx="33.1" cy="392.1" r="3.1"/>
	<circle class="st7" cx="45.1" cy="392.1" r="3.1"/>
	<circle class="st5" cx="69.1" cy="392.1" r="3.1"/>
	<line class="st0" x1="32" y1="421.8" x2="81" y2="421.8"/>
	<circle class="st8" cx="33.1" cy="422.1" r="3.1"/>
	<circle class="st7" cx="45.1" cy="422.1" r="3.1"/>
	<circle class="st5" cx="69.1" cy="422.1" r="3.1"/>
	<circle class="st6" cx="57.1" cy="422.1" r="3.1"/>
	<circle class="st4" cx="81.1" cy="422.1" r="3.1"/>
</g>
</svg>
